solid OpenSCAD_Model
  facet normal 0 0 -1
    outer loop
      vertex -5.41221 -0.85721 0
      vertex -4.78941 1.02674e-16 0
      vertex -4.555 -1.48001 0
    endloop
  endfacet
  facet normal 0 0 -1
    outer loop
      vertex -4.555 1.48001 0
      vertex -4.78941 1.02674e-16 0
      vertex -5.41221 0.85721 0
    endloop
  endfacet
  facet normal 0 0 -1
    outer loop
      vertex -4.555 -1.48001 0
      vertex -4.78941 1.02674e-16 0
      vertex -4.555 1.48001 0
    endloop
  endfacet
  facet normal 0 0 -1
    outer loop
      vertex -3.87471 2.81514 0
      vertex -4.555 1.48001 0
      vertex -4.88242 2.48772 0
    endloop
  endfacet
  facet normal 0 0 -1
    outer loop
      vertex -4.555 -1.48001 0
      vertex -4.555 1.48001 0
      vertex -3.87471 2.81514 0
    endloop
  endfacet
  facet normal 0 0 -1
    outer loop
      vertex -2.81514 3.87471 0
      vertex -3.87471 2.81514 0
      vertex -3.87471 3.87471 0
    endloop
  endfacet
  facet normal 0 0 -1
    outer loop
      vertex -4.555 -1.48001 0
      vertex -3.87471 2.81514 0
      vertex -2.81514 3.87471 0
    endloop
  endfacet
  facet normal 0 0 -1
    outer loop
      vertex -1.48001 4.555 0
      vertex -2.81514 3.87471 0
      vertex -2.48772 4.88242 0
    endloop
  endfacet
  facet normal 0 0 -1
    outer loop
      vertex -4.555 -1.48001 0
      vertex -2.81514 3.87471 0
      vertex -1.48001 4.555 0
    endloop
  endfacet
  facet normal 0 0 -1
    outer loop
      vertex -4.555 -1.48001 0
      vertex -1.48001 4.555 0
      vertex -0.85721 5.41221 0
    endloop
  endfacet
  facet normal 0 0 -1
    outer loop
      vertex -4.555 -1.48001 0
      vertex -0.85721 5.41221 0
      vertex 1.02674e-16 4.78941 0
    endloop
  endfacet
  facet normal 0 0 -1
    outer loop
      vertex -4.555 -1.48001 0
      vertex 1.02674e-16 4.78941 0
      vertex 0.85721 5.41221 0
    endloop
  endfacet
  facet normal 0 0 -1
    outer loop
      vertex -4.555 -1.48001 0
      vertex 0.85721 5.41221 0
      vertex 1.48001 4.555 0
    endloop
  endfacet
  facet normal 0 0 -1
    outer loop
      vertex -4.555 -1.48001 0
      vertex 1.48001 4.555 0
      vertex 2.48772 4.88242 0
    endloop
  endfacet
  facet normal 0 0 -1
    outer loop
      vertex -4.555 -1.48001 0
      vertex 2.48772 4.88242 0
      vertex 2.81514 3.87471 0
    endloop
  endfacet
  facet normal 0 0 -1
    outer loop
      vertex -4.555 -1.48001 0
      vertex 2.81514 3.87471 0
      vertex 3.87471 3.87471 0
    endloop
  endfacet
  facet normal 0 0 -1
    outer loop
      vertex -4.555 -1.48001 0
      vertex 3.87471 3.87471 0
      vertex 3.87471 2.81514 0
    endloop
  endfacet
  facet normal 0 0 -1
    outer loop
      vertex -4.555 -1.48001 0
      vertex 3.87471 2.81514 0
      vertex 4.88242 2.48772 0
    endloop
  endfacet
  facet normal 0 0 -1
    outer loop
      vertex -4.555 -1.48001 0
      vertex 4.88242 2.48772 0
      vertex 4.555 1.48001 0
    endloop
  endfacet
  facet normal 0 0 -1
    outer loop
      vertex -4.555 -1.48001 0
      vertex 4.555 1.48001 0
      vertex 5.41221 0.85721 0
    endloop
  endfacet
  facet normal 0 0 -1
    outer loop
      vertex -4.555 -1.48001 0
      vertex 5.41221 0.85721 0
      vertex 4.78941 -1.02674e-16 0
    endloop
  endfacet
  facet normal 0 0 -1
    outer loop
      vertex -4.555 -1.48001 0
      vertex 4.78941 -1.02674e-16 0
      vertex 5.41221 -0.85721 0
    endloop
  endfacet
  facet normal 0 0 -1
    outer loop
      vertex -4.555 -1.48001 0
      vertex 5.41221 -0.85721 0
      vertex 4.555 -1.48001 0
    endloop
  endfacet
  facet normal 0 0 -1
    outer loop
      vertex -4.555 -1.48001 0
      vertex 4.555 -1.48001 0
      vertex 4.88242 -2.48772 0
    endloop
  endfacet
  facet normal 0 0 -1
    outer loop
      vertex -4.555 -1.48001 0
      vertex 4.88242 -2.48772 0
      vertex 3.87471 -2.81514 0
    endloop
  endfacet
  facet normal 0 0 -1
    outer loop
      vertex -4.555 -1.48001 0
      vertex 3.87471 -2.81514 0
      vertex 3.87471 -3.87471 0
    endloop
  endfacet
  facet normal 0 0 -1
    outer loop
      vertex -4.555 -1.48001 0
      vertex 3.87471 -3.87471 0
      vertex 2.81514 -3.87471 0
    endloop
  endfacet
  facet normal 0 0 -1
    outer loop
      vertex -4.555 -1.48001 0
      vertex 2.81514 -3.87471 0
      vertex 2.48772 -4.88242 0
    endloop
  endfacet
  facet normal 0 0 -1
    outer loop
      vertex -4.555 -1.48001 0
      vertex 2.48772 -4.88242 0
      vertex 1.48001 -4.555 0
    endloop
  endfacet
  facet normal 0 0 -1
    outer loop
      vertex -1.02674e-16 -4.78941 0
      vertex 1.48001 -4.555 0
      vertex 0.85721 -5.41221 0
    endloop
  endfacet
  facet normal 0 0 -1
    outer loop
      vertex -4.555 -1.48001 0
      vertex 1.48001 -4.555 0
      vertex -1.02674e-16 -4.78941 0
    endloop
  endfacet
  facet normal 0 0 -1
    outer loop
      vertex -2.81514 -3.87471 0
      vertex -4.555 -1.48001 0
      vertex -1.48001 -4.555 0
    endloop
  endfacet
  facet normal 0 0 -1
    outer loop
      vertex -1.02674e-16 -4.78941 0
      vertex -0.85721 -5.41221 0
      vertex -1.48001 -4.555 0
    endloop
  endfacet
  facet normal 0 0 -1
    outer loop
      vertex -1.02674e-16 -4.78941 0
      vertex -1.48001 -4.555 0
      vertex -4.555 -1.48001 0
    endloop
  endfacet
  facet normal 0 0 -1
    outer loop
      vertex -3.87471 -3.87471 0
      vertex -3.87471 -2.81514 0
      vertex -2.81514 -3.87471 0
    endloop
  endfacet
  facet normal 0 0 -1
    outer loop
      vertex -2.48772 -4.88242 0
      vertex -2.81514 -3.87471 0
      vertex -1.48001 -4.555 0
    endloop
  endfacet
  facet normal 0 0 -1
    outer loop
      vertex -4.555 -1.48001 0
      vertex -2.81514 -3.87471 0
      vertex -3.87471 -2.81514 0
    endloop
  endfacet
  facet normal 0 0 -1
    outer loop
      vertex -4.88242 -2.48772 0
      vertex -4.555 -1.48001 0
      vertex -3.87471 -2.81514 0
    endloop
  endfacet
  facet normal -0.809017 0.587785 0
    outer loop
      vertex -5.41221 -0.85721 0
      vertex -5.41221 -0.85721 6
      vertex -4.78941 1.02674e-16 0
    endloop
  endfacet
  facet normal -0.809017 0.587785 0
    outer loop
      vertex -4.78941 1.02674e-16 0
      vertex -5.41221 -0.85721 6
      vertex -4.78941 1.02674e-16 6
    endloop
  endfacet
  facet normal -0.587785 -0.809017 0
    outer loop
      vertex -5.41221 -0.85721 6
      vertex -5.41221 -0.85721 0
      vertex -4.555 -1.48001 0
    endloop
  endfacet
  facet normal -0.587785 -0.809017 0
    outer loop
      vertex -4.555 -1.48001 6
      vertex -5.41221 -0.85721 6
      vertex -4.555 -1.48001 0
    endloop
  endfacet
  facet normal -0.951057 0.309017 0
    outer loop
      vertex -4.88242 -2.48772 0
      vertex -4.88242 -2.48772 6
      vertex -4.555 -1.48001 0
    endloop
  endfacet
  facet normal -0.951057 0.309017 0
    outer loop
      vertex -4.555 -1.48001 0
      vertex -4.88242 -2.48772 6
      vertex -4.555 -1.48001 6
    endloop
  endfacet
  facet normal -0.309017 -0.951057 0
    outer loop
      vertex -4.88242 -2.48772 6
      vertex -4.88242 -2.48772 0
      vertex -3.87471 -2.81514 0
    endloop
  endfacet
  facet normal -0.309017 -0.951057 0
    outer loop
      vertex -3.87471 -2.81514 6
      vertex -4.88242 -2.48772 6
      vertex -3.87471 -2.81514 0
    endloop
  endfacet
  facet normal -1 7.85046e-17 0
    outer loop
      vertex -3.87471 -3.87471 0
      vertex -3.87471 -3.87471 6
      vertex -3.87471 -2.81514 0
    endloop
  endfacet
  facet normal -1 7.85046e-17 0
    outer loop
      vertex -3.87471 -2.81514 0
      vertex -3.87471 -3.87471 6
      vertex -3.87471 -2.81514 6
    endloop
  endfacet
  facet normal -7.85046e-17 -1 0
    outer loop
      vertex -3.87471 -3.87471 6
      vertex -3.87471 -3.87471 0
      vertex -2.81514 -3.87471 0
    endloop
  endfacet
  facet normal -7.85046e-17 -1 0
    outer loop
      vertex -2.81514 -3.87471 6
      vertex -3.87471 -3.87471 6
      vertex -2.81514 -3.87471 0
    endloop
  endfacet
  facet normal -0.951057 -0.309017 0
    outer loop
      vertex -2.81514 -3.87471 0
      vertex -2.48772 -4.88242 0
      vertex -2.81514 -3.87471 6
    endloop
  endfacet
  facet normal -0.951057 -0.309017 0
    outer loop
      vertex -2.81514 -3.87471 6
      vertex -2.48772 -4.88242 0
      vertex -2.48772 -4.88242 6
    endloop
  endfacet
  facet normal 0.309017 -0.951057 0
    outer loop
      vertex -2.48772 -4.88242 6
      vertex -2.48772 -4.88242 0
      vertex -1.48001 -4.555 0
    endloop
  endfacet
  facet normal 0.309017 -0.951057 0
    outer loop
      vertex -1.48001 -4.555 6
      vertex -2.48772 -4.88242 6
      vertex -1.48001 -4.555 0
    endloop
  endfacet
  facet normal -0.809017 -0.587785 0
    outer loop
      vertex -1.48001 -4.555 0
      vertex -0.85721 -5.41221 0
      vertex -1.48001 -4.555 6
    endloop
  endfacet
  facet normal -0.809017 -0.587785 0
    outer loop
      vertex -1.48001 -4.555 6
      vertex -0.85721 -5.41221 0
      vertex -0.85721 -5.41221 6
    endloop
  endfacet
  facet normal 0.587785 -0.809017 0
    outer loop
      vertex -0.85721 -5.41221 6
      vertex -0.85721 -5.41221 0
      vertex -1.02674e-16 -4.78941 0
    endloop
  endfacet
  facet normal 0.587785 -0.809017 0
    outer loop
      vertex -1.02674e-16 -4.78941 6
      vertex -0.85721 -5.41221 6
      vertex -1.02674e-16 -4.78941 0
    endloop
  endfacet
  facet normal -0.587785 -0.809017 0
    outer loop
      vertex -1.02674e-16 -4.78941 6
      vertex -1.02674e-16 -4.78941 0
      vertex 0.85721 -5.41221 0
    endloop
  endfacet
  facet normal -0.587785 -0.809017 0
    outer loop
      vertex 0.85721 -5.41221 6
      vertex -1.02674e-16 -4.78941 6
      vertex 0.85721 -5.41221 0
    endloop
  endfacet
  facet normal 0.809017 -0.587785 0
    outer loop
      vertex 0.85721 -5.41221 6
      vertex 0.85721 -5.41221 0
      vertex 1.48001 -4.555 0
    endloop
  endfacet
  facet normal 0.809017 -0.587785 0
    outer loop
      vertex 1.48001 -4.555 6
      vertex 0.85721 -5.41221 6
      vertex 1.48001 -4.555 0
    endloop
  endfacet
  facet normal -0.309017 -0.951057 0
    outer loop
      vertex 1.48001 -4.555 6
      vertex 1.48001 -4.555 0
      vertex 2.48772 -4.88242 0
    endloop
  endfacet
  facet normal -0.309017 -0.951057 0
    outer loop
      vertex 2.48772 -4.88242 6
      vertex 1.48001 -4.555 6
      vertex 2.48772 -4.88242 0
    endloop
  endfacet
  facet normal 0.951057 -0.309017 0
    outer loop
      vertex 2.48772 -4.88242 6
      vertex 2.48772 -4.88242 0
      vertex 2.81514 -3.87471 0
    endloop
  endfacet
  facet normal 0.951057 -0.309017 0
    outer loop
      vertex 2.81514 -3.87471 6
      vertex 2.48772 -4.88242 6
      vertex 2.81514 -3.87471 0
    endloop
  endfacet
  facet normal -7.85046e-17 -1 0
    outer loop
      vertex 2.81514 -3.87471 6
      vertex 2.81514 -3.87471 0
      vertex 3.87471 -3.87471 0
    endloop
  endfacet
  facet normal -7.85046e-17 -1 0
    outer loop
      vertex 3.87471 -3.87471 6
      vertex 2.81514 -3.87471 6
      vertex 3.87471 -3.87471 0
    endloop
  endfacet
  facet normal 1 -7.85046e-17 0
    outer loop
      vertex 3.87471 -3.87471 6
      vertex 3.87471 -3.87471 0
      vertex 3.87471 -2.81514 0
    endloop
  endfacet
  facet normal 1 -7.85046e-17 0
    outer loop
      vertex 3.87471 -2.81514 6
      vertex 3.87471 -3.87471 6
      vertex 3.87471 -2.81514 0
    endloop
  endfacet
  facet normal 0.309017 -0.951057 0
    outer loop
      vertex 3.87471 -2.81514 6
      vertex 3.87471 -2.81514 0
      vertex 4.88242 -2.48772 0
    endloop
  endfacet
  facet normal 0.309017 -0.951057 0
    outer loop
      vertex 4.88242 -2.48772 6
      vertex 3.87471 -2.81514 6
      vertex 4.88242 -2.48772 0
    endloop
  endfacet
  facet normal 0.951057 0.309017 0
    outer loop
      vertex 4.88242 -2.48772 0
      vertex 4.555 -1.48001 0
      vertex 4.555 -1.48001 6
    endloop
  endfacet
  facet normal 0.951057 0.309017 0
    outer loop
      vertex 4.88242 -2.48772 6
      vertex 4.88242 -2.48772 0
      vertex 4.555 -1.48001 6
    endloop
  endfacet
  facet normal 0.587785 -0.809017 0
    outer loop
      vertex 4.555 -1.48001 6
      vertex 4.555 -1.48001 0
      vertex 5.41221 -0.85721 0
    endloop
  endfacet
  facet normal 0.587785 -0.809017 0
    outer loop
      vertex 5.41221 -0.85721 6
      vertex 4.555 -1.48001 6
      vertex 5.41221 -0.85721 0
    endloop
  endfacet
  facet normal 0.809017 0.587785 0
    outer loop
      vertex 5.41221 -0.85721 0
      vertex 4.78941 -1.02674e-16 0
      vertex 4.78941 -1.02674e-16 6
    endloop
  endfacet
  facet normal 0.809017 0.587785 0
    outer loop
      vertex 5.41221 -0.85721 6
      vertex 5.41221 -0.85721 0
      vertex 4.78941 -1.02674e-16 6
    endloop
  endfacet
  facet normal 0.809017 -0.587785 0
    outer loop
      vertex 4.78941 -1.02674e-16 6
      vertex 4.78941 -1.02674e-16 0
      vertex 5.41221 0.85721 0
    endloop
  endfacet
  facet normal 0.809017 -0.587785 0
    outer loop
      vertex 5.41221 0.85721 6
      vertex 4.78941 -1.02674e-16 6
      vertex 5.41221 0.85721 0
    endloop
  endfacet
  facet normal 0.587785 0.809017 0
    outer loop
      vertex 4.555 1.48001 0
      vertex 4.555 1.48001 6
      vertex 5.41221 0.85721 0
    endloop
  endfacet
  facet normal 0.587785 0.809017 0
    outer loop
      vertex 5.41221 0.85721 0
      vertex 4.555 1.48001 6
      vertex 5.41221 0.85721 6
    endloop
  endfacet
  facet normal 0.951057 -0.309017 0
    outer loop
      vertex 4.555 1.48001 6
      vertex 4.555 1.48001 0
      vertex 4.88242 2.48772 0
    endloop
  endfacet
  facet normal 0.951057 -0.309017 0
    outer loop
      vertex 4.88242 2.48772 6
      vertex 4.555 1.48001 6
      vertex 4.88242 2.48772 0
    endloop
  endfacet
  facet normal 0.309017 0.951057 0
    outer loop
      vertex 3.87471 2.81514 0
      vertex 3.87471 2.81514 6
      vertex 4.88242 2.48772 0
    endloop
  endfacet
  facet normal 0.309017 0.951057 0
    outer loop
      vertex 4.88242 2.48772 0
      vertex 3.87471 2.81514 6
      vertex 4.88242 2.48772 6
    endloop
  endfacet
  facet normal 1 -7.85046e-17 0
    outer loop
      vertex 3.87471 2.81514 6
      vertex 3.87471 2.81514 0
      vertex 3.87471 3.87471 0
    endloop
  endfacet
  facet normal 1 -7.85046e-17 0
    outer loop
      vertex 3.87471 3.87471 6
      vertex 3.87471 2.81514 6
      vertex 3.87471 3.87471 0
    endloop
  endfacet
  facet normal 7.85046e-17 1 0
    outer loop
      vertex 2.81514 3.87471 0
      vertex 2.81514 3.87471 6
      vertex 3.87471 3.87471 0
    endloop
  endfacet
  facet normal 7.85046e-17 1 0
    outer loop
      vertex 3.87471 3.87471 0
      vertex 2.81514 3.87471 6
      vertex 3.87471 3.87471 6
    endloop
  endfacet
  facet normal 0.951057 0.309017 0
    outer loop
      vertex 2.81514 3.87471 0
      vertex 2.48772 4.88242 0
      vertex 2.48772 4.88242 6
    endloop
  endfacet
  facet normal 0.951057 0.309017 0
    outer loop
      vertex 2.81514 3.87471 6
      vertex 2.81514 3.87471 0
      vertex 2.48772 4.88242 6
    endloop
  endfacet
  facet normal -0.309017 0.951057 0
    outer loop
      vertex 1.48001 4.555 0
      vertex 1.48001 4.555 6
      vertex 2.48772 4.88242 0
    endloop
  endfacet
  facet normal -0.309017 0.951057 0
    outer loop
      vertex 2.48772 4.88242 0
      vertex 1.48001 4.555 6
      vertex 2.48772 4.88242 6
    endloop
  endfacet
  facet normal 0.809017 0.587785 0
    outer loop
      vertex 1.48001 4.555 0
      vertex 0.85721 5.41221 0
      vertex 0.85721 5.41221 6
    endloop
  endfacet
  facet normal 0.809017 0.587785 0
    outer loop
      vertex 1.48001 4.555 6
      vertex 1.48001 4.555 0
      vertex 0.85721 5.41221 6
    endloop
  endfacet
  facet normal -0.587785 0.809017 0
    outer loop
      vertex 1.02674e-16 4.78941 0
      vertex 1.02674e-16 4.78941 6
      vertex 0.85721 5.41221 0
    endloop
  endfacet
  facet normal -0.587785 0.809017 0
    outer loop
      vertex 0.85721 5.41221 0
      vertex 1.02674e-16 4.78941 6
      vertex 0.85721 5.41221 6
    endloop
  endfacet
  facet normal 0.587785 0.809017 0
    outer loop
      vertex -0.85721 5.41221 0
      vertex -0.85721 5.41221 6
      vertex 1.02674e-16 4.78941 0
    endloop
  endfacet
  facet normal 0.587785 0.809017 0
    outer loop
      vertex 1.02674e-16 4.78941 0
      vertex -0.85721 5.41221 6
      vertex 1.02674e-16 4.78941 6
    endloop
  endfacet
  facet normal -0.809017 0.587785 0
    outer loop
      vertex -1.48001 4.555 0
      vertex -1.48001 4.555 6
      vertex -0.85721 5.41221 0
    endloop
  endfacet
  facet normal -0.809017 0.587785 0
    outer loop
      vertex -0.85721 5.41221 0
      vertex -1.48001 4.555 6
      vertex -0.85721 5.41221 6
    endloop
  endfacet
  facet normal 0.309017 0.951057 0
    outer loop
      vertex -2.48772 4.88242 0
      vertex -2.48772 4.88242 6
      vertex -1.48001 4.555 0
    endloop
  endfacet
  facet normal 0.309017 0.951057 0
    outer loop
      vertex -1.48001 4.555 0
      vertex -2.48772 4.88242 6
      vertex -1.48001 4.555 6
    endloop
  endfacet
  facet normal -0.951057 0.309017 0
    outer loop
      vertex -2.81514 3.87471 0
      vertex -2.81514 3.87471 6
      vertex -2.48772 4.88242 0
    endloop
  endfacet
  facet normal -0.951057 0.309017 0
    outer loop
      vertex -2.48772 4.88242 0
      vertex -2.81514 3.87471 6
      vertex -2.48772 4.88242 6
    endloop
  endfacet
  facet normal 7.85046e-17 1 0
    outer loop
      vertex -3.87471 3.87471 0
      vertex -3.87471 3.87471 6
      vertex -2.81514 3.87471 0
    endloop
  endfacet
  facet normal 7.85046e-17 1 0
    outer loop
      vertex -2.81514 3.87471 0
      vertex -3.87471 3.87471 6
      vertex -2.81514 3.87471 6
    endloop
  endfacet
  facet normal -1 7.85046e-17 0
    outer loop
      vertex -3.87471 2.81514 0
      vertex -3.87471 2.81514 6
      vertex -3.87471 3.87471 0
    endloop
  endfacet
  facet normal -1 7.85046e-17 0
    outer loop
      vertex -3.87471 3.87471 0
      vertex -3.87471 2.81514 6
      vertex -3.87471 3.87471 6
    endloop
  endfacet
  facet normal -0.309017 0.951057 0
    outer loop
      vertex -4.88242 2.48772 0
      vertex -4.88242 2.48772 6
      vertex -3.87471 2.81514 0
    endloop
  endfacet
  facet normal -0.309017 0.951057 0
    outer loop
      vertex -3.87471 2.81514 0
      vertex -4.88242 2.48772 6
      vertex -3.87471 2.81514 6
    endloop
  endfacet
  facet normal -0.951057 -0.309017 0
    outer loop
      vertex -4.88242 2.48772 0
      vertex -4.555 1.48001 0
      vertex -4.88242 2.48772 6
    endloop
  endfacet
  facet normal -0.951057 -0.309017 0
    outer loop
      vertex -4.88242 2.48772 6
      vertex -4.555 1.48001 0
      vertex -4.555 1.48001 6
    endloop
  endfacet
  facet normal -0.587785 0.809017 0
    outer loop
      vertex -5.41221 0.85721 0
      vertex -5.41221 0.85721 6
      vertex -4.555 1.48001 0
    endloop
  endfacet
  facet normal -0.587785 0.809017 0
    outer loop
      vertex -4.555 1.48001 0
      vertex -5.41221 0.85721 6
      vertex -4.555 1.48001 6
    endloop
  endfacet
  facet normal -0.809017 -0.587785 0
    outer loop
      vertex -5.41221 0.85721 0
      vertex -4.78941 1.02674e-16 0
      vertex -5.41221 0.85721 6
    endloop
  endfacet
  facet normal -0.809017 -0.587785 0
    outer loop
      vertex -5.41221 0.85721 6
      vertex -4.78941 1.02674e-16 0
      vertex -4.78941 1.02674e-16 6
    endloop
  endfacet
  facet normal 0 0 1
    outer loop
      vertex -3.87471 -2.81514 6
      vertex -2.81514 -3.87471 6
      vertex -4.78941 1.02674e-16 6
    endloop
  endfacet
  facet normal 0 0 1
    outer loop
      vertex -4.78941 1.02674e-16 6
      vertex -5.41221 -0.85721 6
      vertex -4.555 -1.48001 6
    endloop
  endfacet
  facet normal 0 0 1
    outer loop
      vertex -3.87471 -2.81514 6
      vertex -4.78941 1.02674e-16 6
      vertex -4.555 -1.48001 6
    endloop
  endfacet
  facet normal 0 0 1
    outer loop
      vertex -4.88242 -2.48772 6
      vertex -3.87471 -2.81514 6
      vertex -4.555 -1.48001 6
    endloop
  endfacet
  facet normal 0 0 1
    outer loop
      vertex -2.81514 -3.87471 6
      vertex -1.48001 -4.555 6
      vertex -4.78941 1.02674e-16 6
    endloop
  endfacet
  facet normal 0 0 1
    outer loop
      vertex -3.87471 -3.87471 6
      vertex -2.81514 -3.87471 6
      vertex -3.87471 -2.81514 6
    endloop
  endfacet
  facet normal 0 0 1
    outer loop
      vertex -1.48001 -4.555 6
      vertex -1.02674e-16 -4.78941 6
      vertex -4.78941 1.02674e-16 6
    endloop
  endfacet
  facet normal 0 0 1
    outer loop
      vertex -2.48772 -4.88242 6
      vertex -1.48001 -4.555 6
      vertex -2.81514 -3.87471 6
    endloop
  endfacet
  facet normal 0 0 1
    outer loop
      vertex -1.02674e-16 -4.78941 6
      vertex 0.85721 -5.41221 6
      vertex -4.78941 1.02674e-16 6
    endloop
  endfacet
  facet normal 0 0 1
    outer loop
      vertex -0.85721 -5.41221 6
      vertex -1.02674e-16 -4.78941 6
      vertex -1.48001 -4.555 6
    endloop
  endfacet
  facet normal 0 0 1
    outer loop
      vertex -1.6095 2.78774 6
      vertex 1.6095 2.78774 6
      vertex 3.87471 3.87471 6
    endloop
  endfacet
  facet normal 0 0 1
    outer loop
      vertex 1.6095 2.78774 6
      vertex 4.88242 2.48772 6
      vertex 3.87471 2.81514 6
    endloop
  endfacet
  facet normal 0 0 1
    outer loop
      vertex -1.6095 2.78774 6
      vertex 2.81514 3.87471 6
      vertex 2.48772 4.88242 6
    endloop
  endfacet
  facet normal 0 0 1
    outer loop
      vertex -1.6095 2.78774 6
      vertex 3.87471 3.87471 6
      vertex 2.81514 3.87471 6
    endloop
  endfacet
  facet normal 0 0 1
    outer loop
      vertex 3.219 0 6
      vertex 3.87471 -2.81514 6
      vertex 4.88242 -2.48772 6
    endloop
  endfacet
  facet normal 0 0 1
    outer loop
      vertex 1.6095 2.78774 6
      vertex 5.41221 0.85721 6
      vertex 4.555 1.48001 6
    endloop
  endfacet
  facet normal 0 0 1
    outer loop
      vertex 1.6095 2.78774 6
      vertex 3.219 0 6
      vertex 5.41221 0.85721 6
    endloop
  endfacet
  facet normal 0 0 1
    outer loop
      vertex -1.6095 2.78774 6
      vertex 0.85721 5.41221 6
      vertex -4.78941 1.02674e-16 6
    endloop
  endfacet
  facet normal 0 0 1
    outer loop
      vertex 1.6095 2.78774 6
      vertex 4.555 1.48001 6
      vertex 4.88242 2.48772 6
    endloop
  endfacet
  facet normal 0 0 1
    outer loop
      vertex 0.85721 5.41221 6
      vertex 1.02674e-16 4.78941 6
      vertex -4.78941 1.02674e-16 6
    endloop
  endfacet
  facet normal 0 0 1
    outer loop
      vertex 1.6095 -2.78774 6
      vertex 1.48001 -4.555 6
      vertex 2.48772 -4.88242 6
    endloop
  endfacet
  facet normal 0 0 1
    outer loop
      vertex 1.02674e-16 4.78941 6
      vertex -1.48001 4.555 6
      vertex -4.78941 1.02674e-16 6
    endloop
  endfacet
  facet normal 0 0 1
    outer loop
      vertex 1.02674e-16 4.78941 6
      vertex -0.85721 5.41221 6
      vertex -1.48001 4.555 6
    endloop
  endfacet
  facet normal 0 0 1
    outer loop
      vertex -1.48001 4.555 6
      vertex -2.81514 3.87471 6
      vertex -4.78941 1.02674e-16 6
    endloop
  endfacet
  facet normal 0 0 1
    outer loop
      vertex -1.48001 4.555 6
      vertex -2.48772 4.88242 6
      vertex -2.81514 3.87471 6
    endloop
  endfacet
  facet normal 0 0 1
    outer loop
      vertex 1.6095 -2.78774 6
      vertex 2.48772 -4.88242 6
      vertex 2.81514 -3.87471 6
    endloop
  endfacet
  facet normal 0 0 1
    outer loop
      vertex -2.81514 3.87471 6
      vertex -4.555 1.48001 6
      vertex -4.78941 1.02674e-16 6
    endloop
  endfacet
  facet normal 0 0 1
    outer loop
      vertex 1.6095 -2.78774 6
      vertex -1.6095 -2.78774 6
      vertex 1.48001 -4.555 6
    endloop
  endfacet
  facet normal 0 0 1
    outer loop
      vertex -2.81514 3.87471 6
      vertex -3.87471 3.87471 6
      vertex -3.87471 2.81514 6
    endloop
  endfacet
  facet normal 0 0 1
    outer loop
      vertex -2.81514 3.87471 6
      vertex -3.87471 2.81514 6
      vertex -4.555 1.48001 6
    endloop
  endfacet
  facet normal 0 0 1
    outer loop
      vertex -1.6095 -2.78774 6
      vertex -3.219 0 6
      vertex -4.78941 1.02674e-16 6
    endloop
  endfacet
  facet normal 0 0 1
    outer loop
      vertex 0.85721 -5.41221 6
      vertex -1.6095 -2.78774 6
      vertex -4.78941 1.02674e-16 6
    endloop
  endfacet
  facet normal 0 0 1
    outer loop
      vertex 0.85721 -5.41221 6
      vertex 1.48001 -4.555 6
      vertex -1.6095 -2.78774 6
    endloop
  endfacet
  facet normal 0 0 1
    outer loop
      vertex -1.6095 2.78774 6
      vertex 2.48772 4.88242 6
      vertex 1.48001 4.555 6
    endloop
  endfacet
  facet normal 0 0 1
    outer loop
      vertex 1.48001 4.555 6
      vertex 0.85721 5.41221 6
      vertex -1.6095 2.78774 6
    endloop
  endfacet
  facet normal 0 0 1
    outer loop
      vertex 3.219 0 6
      vertex 1.6095 -2.78774 6
      vertex 3.87471 -2.81514 6
    endloop
  endfacet
  facet normal 0 0 1
    outer loop
      vertex 3.87471 2.81514 6
      vertex 3.87471 3.87471 6
      vertex 1.6095 2.78774 6
    endloop
  endfacet
  facet normal 0 0 1
    outer loop
      vertex 4.78941 -1.02674e-16 6
      vertex 5.41221 0.85721 6
      vertex 3.219 0 6
    endloop
  endfacet
  facet normal 0 0 1
    outer loop
      vertex 3.87471 -3.87471 6
      vertex 3.87471 -2.81514 6
      vertex 1.6095 -2.78774 6
    endloop
  endfacet
  facet normal 0 0 1
    outer loop
      vertex -4.88242 2.48772 6
      vertex -4.555 1.48001 6
      vertex -3.87471 2.81514 6
    endloop
  endfacet
  facet normal 0 0 1
    outer loop
      vertex 3.219 0 6
      vertex 4.88242 -2.48772 6
      vertex 4.555 -1.48001 6
    endloop
  endfacet
  facet normal 0 0 1
    outer loop
      vertex 1.6095 -2.78774 6
      vertex 2.81514 -3.87471 6
      vertex 3.87471 -3.87471 6
    endloop
  endfacet
  facet normal 0 0 1
    outer loop
      vertex -5.41221 0.85721 6
      vertex -4.78941 1.02674e-16 6
      vertex -4.555 1.48001 6
    endloop
  endfacet
  facet normal 0 0 1
    outer loop
      vertex 3.219 0 6
      vertex 4.555 -1.48001 6
      vertex 5.41221 -0.85721 6
    endloop
  endfacet
  facet normal 0 0 1
    outer loop
      vertex 3.219 0 6
      vertex 5.41221 -0.85721 6
      vertex 4.78941 -1.02674e-16 6
    endloop
  endfacet
  facet normal 0 0 1
    outer loop
      vertex -3.219 0 6
      vertex -1.6095 2.78774 6
      vertex -4.78941 1.02674e-16 6
    endloop
  endfacet
  facet normal 0.866025 0.5 0
    outer loop
      vertex -3.219 0 6
      vertex -1.6095 -2.78774 6
      vertex -1.6095 -2.78774 0.6
    endloop
  endfacet
  facet normal 0.866025 0.5 0
    outer loop
      vertex -3.219 0 0.6
      vertex -3.219 0 6
      vertex -1.6095 -2.78774 0.6
    endloop
  endfacet
  facet normal 0 1 0
    outer loop
      vertex 1.6095 -2.78774 6
      vertex 1.6095 -2.78774 0.6
      vertex -1.6095 -2.78774 6
    endloop
  endfacet
  facet normal 0 1 0
    outer loop
      vertex -1.6095 -2.78774 6
      vertex 1.6095 -2.78774 0.6
      vertex -1.6095 -2.78774 0.6
    endloop
  endfacet
  facet normal -0.866025 0.5 0
    outer loop
      vertex 3.219 0 6
      vertex 3.219 0 0.6
      vertex 1.6095 -2.78774 6
    endloop
  endfacet
  facet normal -0.866025 0.5 0
    outer loop
      vertex 1.6095 -2.78774 6
      vertex 3.219 0 0.6
      vertex 1.6095 -2.78774 0.6
    endloop
  endfacet
  facet normal -0.866025 -0.5 0
    outer loop
      vertex 3.219 0 6
      vertex 1.6095 2.78774 6
      vertex 3.219 0 0.6
    endloop
  endfacet
  facet normal -0.866025 -0.5 0
    outer loop
      vertex 3.219 0 0.6
      vertex 1.6095 2.78774 6
      vertex 1.6095 2.78774 0.6
    endloop
  endfacet
  facet normal 0 -1 0
    outer loop
      vertex 1.6095 2.78774 0.6
      vertex 1.6095 2.78774 6
      vertex -1.6095 2.78774 6
    endloop
  endfacet
  facet normal 0 -1 0
    outer loop
      vertex -1.6095 2.78774 0.6
      vertex 1.6095 2.78774 0.6
      vertex -1.6095 2.78774 6
    endloop
  endfacet
  facet normal 0.866025 -0.5 0
    outer loop
      vertex -1.6095 2.78774 0.6
      vertex -1.6095 2.78774 6
      vertex -3.219 0 6
    endloop
  endfacet
  facet normal 0.866025 -0.5 0
    outer loop
      vertex -3.219 0 0.6
      vertex -1.6095 2.78774 0.6
      vertex -3.219 0 6
    endloop
  endfacet
  facet normal 0 0 1
    outer loop
      vertex -1.6095 -2.78774 0.6
      vertex 1.6095 -2.78774 0.6
      vertex 3.219 0 0.6
    endloop
  endfacet
  facet normal 0 0 1
    outer loop
      vertex -1.6095 2.78774 0.6
      vertex -1.6095 -2.78774 0.6
      vertex 1.6095 2.78774 0.6
    endloop
  endfacet
  facet normal 0 0 1
    outer loop
      vertex 1.6095 2.78774 0.6
      vertex -1.6095 -2.78774 0.6
      vertex 3.219 0 0.6
    endloop
  endfacet
  facet normal 0 0 1
    outer loop
      vertex -3.219 0 0.6
      vertex -1.6095 -2.78774 0.6
      vertex -1.6095 2.78774 0.6
    endloop
  endfacet
endsolid OpenSCAD_Model
