<?xml version="1.0" encoding="UTF-8" standalone="no"?>
<!DOCTYPE svg PUBLIC "-//W3C//DTD SVG 1.1//EN" "http://www.w3.org/Graphics/SVG/1.1/DTD/svg11.dtd">
<!-- Generated by Microsoft Visio, SVG Export RepRap Component Structure.svg StructureB -->
<!-- then tweaked by hand in VIM. -->
<svg xmlns="http://www.w3.org/2000/svg" xmlns:xlink="http://www.w3.org/1999/xlink" xmlns:ev="http://www.w3.org/2001/xml-events"
		width="16.5268in" height="3.29851in" viewBox="0 0 1189.93 237.493" xml:space="preserve" color-interpolation-filters="sRGB"
		class="st8">
	<style type="text/css">
	<![CDATA[
		.st1 {fill:#ffffff;stroke:#000000;stroke-linecap:round;stroke-linejoin:round;stroke-width:0.24}
		.st2 {fill:#000000;font-family:Century Gothic;font-size:0.833336em}
		.st3 {font-size:1em}
		.st4 {marker-end:url(#mrkr4-28);stroke:#000000;stroke-linecap:round;stroke-linejoin:round;stroke-width:0.239976}
		.st5 {fill:#000000;fill-opacity:1;stroke:#000000;stroke-opacity:1;stroke-width:0.086948582161584}
		.st6 {marker-end:url(#mrkr4-69);stroke:#000000;stroke-linecap:round;stroke-linejoin:round;stroke-width:0.239976}
		.st7 {fill:#000000;font-family:Century Gothic;font-size:0.833336em;font-weight:bold}
		.st8 {fill:none;fill-rule:evenodd;font-size:12px;overflow:visible;stroke-linecap:square;stroke-miterlimit:3}
	]]>
	</style>

	<defs id="Markers">
		<g id="lend4">
			<path d="M 2 1 L 0 0 L 2 -1 L 2 1 " style="stroke:none"/>
		</g>
		<marker id="mrkr4-28" class="st5" refX="-21.50195019502" orient="auto" markerUnits="strokeWidth" overflow="visible">
			<use xlink:href="#lend4" transform="scale(-11.501050105011,-11.501050105011) "/>
		</marker>
		<marker id="mrkr4-69" class="st5" refX="-23.002100210021" orient="auto" markerUnits="strokeWidth" overflow="visible">
			<use xlink:href="#lend4" transform="scale(-11.501050105011,-11.501050105011) "/>
		</marker>
	</defs>
	<g>
		<title>StructureB</title>
		<g id="shape1-1" transform="translate(663.187,-147.588)">
			<title>Rounded Rectangle.1</title>
			<desc>Electronics</desc>
			<path d="M5.67 237.49 L51.02 237.49 A5.6692 5.6692 -180 0 0 56.69 231.82 L56.69 214.82 A5.6692 5.6692 -180 0 0 51.02
						 209.15 L5.67 209.15 A5.6692 5.6692 -180 0 0 0 214.82 L0 231.82 A5.6692 5.6692 -180 0 0 5.67 237.49 Z"
					class="st1"/>
			<text x="5.72" y="226.32" class="st2">Electronics</text>		</g>
		<g id="shape2-4" transform="translate(537.045,-105.069)">
			<title>Rounded Rectangle.2</title>
			<desc>Controller</desc>
			<path d="M5.67 237.49 L51.02 237.49 A5.6692 5.6692 -180 0 0 56.69 231.82 L56.69 214.82 A5.6692 5.6692 -180 0 0 51.02
						 209.15 L5.67 209.15 A5.6692 5.6692 -180 0 0 0 214.82 L0 231.82 A5.6692 5.6692 -180 0 0 5.67 237.49 Z"
					class="st1"/>
			<text x="4.73" y="226.32" class="st2">Controller</text>		</g>
		<g id="shape3-7" transform="translate(607.912,-105.069)">
			<title>Rounded Rectangle.3</title>
			<desc>Stepper Motors</desc>
			<path d="M4.65 237.49 L41.87 237.49 A4.65229 4.65229 -180 0 0 46.52 232.84 L46.52 213.8 A4.65229 4.65229 -180 0 0 41.87
						 209.15 L4.65 209.15 A4.65229 4.65229 -180 0 0 0 213.8 L0 232.84 A4.65229 4.65229 -180 0 0 4.65 237.49 Z"
					class="st1"/>
			<text x="4.25" y="220.32" class="st2">Stepper <tspan x="6.98" dy="1.2em" class="st3">Motors</tspan></text>		</g>
		<g id="shape4-11" transform="translate(789.329,-105.069)">
			<title>Rounded Rectangle.4</title>
			<desc>Stepper Drivers</desc>
			<path d="M5.67 237.49 L51.02 237.49 A5.6692 5.6692 -180 0 0 56.69 231.82 L56.69 214.82 A5.6692 5.6692 -180 0 0 51.02
						 209.15 L5.67 209.15 A5.6692 5.6692 -180 0 0 0 214.82 L0 231.82 A5.6692 5.6692 -180 0 0 5.67 237.49 Z"
					class="st1"/>
			<text x="9.34" y="220.32" class="st2">Stepper <tspan x="12.66" dy="1.2em" class="st3">Drivers</tspan></text>		</g>
		<g id="shape5-15" transform="translate(668.608,-105.069)">
			<title>Rounded Rectangle.7</title>
			<desc>End Stops</desc>
			<path d="M4.65 237.49 L41.87 237.49 A4.65229 4.65229 -180 0 0 46.52 232.84 L46.52 213.8 A4.65229 4.65229 -180 0 0 41.87
						 209.15 L4.65 209.15 A4.65229 4.65229 -180 0 0 0 213.8 L0 232.84 A4.65229 4.65229 -180 0 0 4.65 237.49 Z"
					class="st1"/>
			<text x="14.11" y="220.32" class="st2">End <tspan x="10.45" dy="1.2em" class="st3">Stops</tspan></text>		</g>
		<g id="shape6-19" transform="translate(729.305,-105.069)">
			<title>Rounded Rectangle.8</title>
			<desc>Heated Bed</desc>
			<path d="M4.59 237.49 L41.27 237.49 A4.58496 4.58496 -180 0 0 45.85 232.91 L45.85 213.73 A4.58496 4.58496 -180 0 0 41.27
						 209.15 L4.59 209.15 A4.58496 4.58496 -180 0 0 -0 213.73 L0 232.91 A4.58496 4.58496 -180 0 0 4.59 237.49
						 Z" class="st1"/>
			<text x="4.48" y="220.32" class="st2">Heated <tspan x="13.38" dy="1.2em" class="st3">Bed</tspan></text>		</g>
		<g id="shape7-23" transform="translate(691.534,-147.588)">
			<title>Dynamic connector</title>
			<path d="M0 237.49 C-0 244.58 -31.54 244.58 -63.07 244.58 C-87.78 244.58 -112.48 244.58 -122.03 247.99 L-122.29 248.23"
					class="st4"/>
		</g>
		<g id="shape8-29" transform="translate(691.534,-147.588)">
			<title>Dynamic connector.8</title>
			<path d="M0 237.49 C-0 244.58 -15.09 244.58 -30.18 244.58 C-41.02 244.58 -51.86 244.58 -57.11 247.21 L-57.32 247.5"
					class="st4"/>
		</g>
		<g id="shape9-34" transform="translate(691.534,-147.588)">
			<title>Dynamic connector.9</title>
			<path d="M0 237.49 C0 244.58 31.54 244.58 63.07 244.58 C87.78 244.58 112.48 244.58 122.03 247.99 L122.29 248.23"
					class="st4"/>
		</g>
		<g id="shape10-39" transform="translate(684.615,-147.588)">
			<title>Dynamic connector.12</title>
			<path d="M6.92 237.49 C6.92 241.04 6.92 242.81 6.97 243.69 C7.03 244.58 7.14 244.58 7.2 245.47 C7.21 245.65 7.22 245.88
						 7.23 246.15 L7.23 246.51" class="st4"/>
		</g>
		<g id="shape11-44" transform="translate(691.534,-147.588)">
			<title>Dynamic connector.13</title>
			<path d="M0 237.49 C-0 244.58 15.17 244.58 30.35 244.58 C41.26 244.58 52.17 244.58 57.44 247.21 L57.65 247.5"
					class="st4"/>
		</g>
		<g id="shape12-49" transform="translate(888.342,-147.588)">
			<title>Rounded Rectangle.25</title>
			<desc>Mechanics</desc>
			<path d="M7.13 237.49 L64.14 237.49 A7.12636 7.12636 -180 0 0 71.26 230.37 L71.26 216.27 A7.12636 7.12636 -180 0 0 64.14
						 209.15 L7.13 209.15 A7.12636 7.12636 -180 0 0 0 216.27 L0 230.37 A7.12636 7.12636 -180 0 0 7.13 237.49 Z"
					class="st1"/>
			<text x="8.86" y="226.32" class="st2">Mechanics</text>		</g>
		<g id="shape13-52" transform="translate(902.715,-105.069)">
			<title>Rounded Rectangle.13</title>
			<desc>Axis Motion</desc>
			<path d="M4.25 237.49 L38.27 237.49 A4.2519 4.2519 -180 0 0 42.52 233.24 L42.52 213.4 A4.2519 4.2519 -180 0 0 38.27 209.15
						 L4.25 209.15 A4.2519 4.2519 -180 0 0 0 213.4 L0 233.24 A4.2519 4.2519 -180 0 0 4.25 237.49 Z" class="st1"/>
			<text x="12.22" y="220.32" class="st2">Axis <tspan x="4.37" dy="1.2em" class="st3">Motion</tspan></text>		</g>
		<g id="shape14-56" transform="translate(860.195,-62.5488)">
			<title>Rounded Rectangle.14</title>
			<desc>Belts and Pulleys</desc>
			<path d="M5.67 237.49 L51.02 237.49 A5.6692 5.6692 -180 0 0 56.69 231.82 L56.69 214.82 A5.6692 5.6692 -180 0 0 51.02
						 209.15 L5.67 209.15 A5.6692 5.6692 -180 0 0 0 214.82 L0 231.82 A5.6692 5.6692 -180 0 0 5.67 237.49 Z"
					class="st1"/>
			<text x="6.32" y="220.32" class="st2">Belts and <tspan x="12.47" dy="1.2em" class="st3">Pulleys</tspan></text>		</g>
		<g id="shape15-60" transform="translate(931.061,-62.5488)">
			<title>Rounded Rectangle.15</title>
			<desc>Threaded rod</desc>
			<path d="M5.67 237.49 L51.02 237.49 A5.6692 5.6692 -180 0 0 56.69 231.82 L56.69 214.82 A5.6692 5.6692 -180 0 0 51.02
						 209.15 L5.67 209.15 A5.6692 5.6692 -180 0 0 0 214.82 L0 231.82 A5.6692 5.6692 -180 0 0 5.67 237.49 Z"
					class="st1"/>
			<text x="4.9" y="220.32" class="st2">Threaded <tspan x="20.14" dy="1.2em" class="st3">rod</tspan></text>		</g>
		<g id="shape16-64" transform="translate(916.888,-147.588)">
			<title>Dynamic connector.16</title>
			<path d="M7.09 237.49 C7.09 239.61 7.09 243.01 7.09 246.15" class="st6"/>
		</g>
		<g id="shape17-70" transform="translate(923.975,-105.069)">
			<title>Dynamic connector.17</title>
			<path d="M0 237.49 C-0 243.08 -21.99 244.26 -31.33 247.98 L-31.59 248.22" class="st4"/>
		</g>
		<g id="shape18-75" transform="translate(923.975,-105.069)">
			<title>Dynamic connector.18</title>
			<path d="M0 237.49 C-0 243.08 -21.99 244.26 -31.33 247.98 L-31.59 248.22" class="st4"/>
		</g>
		<g id="shape19-80" transform="translate(1054.4,-147.588)">
			<title>Rounded Rectangle.36</title>
			<desc>Extruder</desc>
			<path d="M5.67 237.49 L51.02 237.49 A5.6692 5.6692 -180 0 0 56.69 231.82 L56.69 214.82 A5.6692 5.6692 -180 0 0 51.02
						 209.15 L5.67 209.15 A5.6692 5.6692 -180 0 0 0 214.82 L0 231.82 A5.6692 5.6692 -180 0 0 5.67 237.49 Z"
					class="st1"/>
			<text x="8.85" y="226.32" class="st2">Extruder</text>		</g>
		<g id="shape20-83" transform="translate(1001.93,-105.069)">
			<title>Rounded Rectangle.37</title>
			<desc>Hot end</desc>
			<path d="M4.1 237.49 L36.88 237.49 A4.09812 4.09812 -180 0 0 40.98 233.39 L40.98 213.24 A4.09812 4.09812 -180 0 0 36.88
						 209.15 L4.1 209.15 A4.09812 4.09812 -180 0 0 0 213.24 L0 233.39 A4.09812 4.09812 -180 0 0 4.1 237.49 Z"
					class="st1"/>
			<text x="12.11" y="220.32" class="st2">Hot <tspan x="10.77" dy="1.2em" class="st3">end</tspan></text>		</g>
		<g id="shape21-87" transform="translate(1057.08,-105.069)">
			<title>Rounded Rectangle.38</title>
			<desc>Cold end</desc>
			<path d="M4.35 237.49 L39.13 237.49 A4.34757 4.34757 -180 0 0 43.48 233.15 L43.48 213.49 A4.34757 4.34757 -180 0 0 39.13
						 209.15 L4.35 209.15 A4.34757 4.34757 -180 0 0 0 213.49 L0 233.15 A4.34757 4.34757 -180 0 0 4.35 237.49 Z"
					class="st1"/>
			<text x="9.97" y="220.32" class="st2">Cold <tspan x="12.01" dy="1.2em" class="st3">end</tspan></text>		</g>
		<g id="shape22-91" transform="translate(1082.75,-147.588)">
			<title>Dynamic connector.39</title>
			<path d="M0 237.49 C-0 244.58 -15.08 244.58 -30.17 244.58 C-41 244.58 -51.83 244.58 -57.08 247.21 L-57.29 247.5"
					class="st4"/>
		</g>
		<g id="shape23-96" transform="translate(1087.87,-147.588)">
			<title>Dynamic connector.40</title>
			<path d="M-5.12 237.49 C-5.12 242.12 -6.8 243.73 -7.96 246.26 L-8.03 246.61" class="st4"/>
		</g>
		<g id="shape24-101" transform="translate(1114.73,-105.069)">
			<title>Rounded Rectangle.24</title>
			<desc>Filament</desc>
			<path d="M5.67 237.49 L51.02 237.49 A5.6692 5.6692 -180 0 0 56.69 231.82 L56.69 214.82 A5.6692 5.6692 -180 0 0 51.02
						 209.15 L5.67 209.15 A5.6692 5.6692 -180 0 0 0 214.82 L0 231.82 A5.6692 5.6692 -180 0 0 5.67 237.49 Z"
					class="st1"/>
			<text x="7.82" y="226.32" class="st2">Filament</text>		</g>
		<g id="shape25-104" transform="translate(1082.75,-147.588)">
			<title>Dynamic connector.42</title>
			<path d="M0 237.49 C-0 244.58 15.08 244.58 30.17 244.58 C41 244.58 51.83 244.58 57.08 247.21 L57.29 247.5" class="st4"/>
		</g>
		<g id="shape26-109" transform="translate(227.789,-147.588)">
			<title>Rounded Rectangle.26</title>
			<desc>Software</desc>
			<path d="M5.67 237.49 L51.02 237.49 A5.6692 5.6692 -180 0 0 56.69 231.82 L56.69 214.82 A5.6692 5.6692 -180 0 0 51.02
						 209.15 L5.67 209.15 A5.6692 5.6692 -180 0 0 0 214.82 L0 231.82 A5.6692 5.6692 -180 0 0 5.67 237.49 Z"
					class="st1"/>
			<text x="6.99" y="226.32" class="st2">Software</text>		</g>
		<g id="shape27-112" transform="translate(54.4309,-105.069)">
			<title>Rounded Rectangle.27</title>
			<desc>CAD Tools</desc>
			<path d="M4.25 237.49 L38.27 237.49 A4.2519 4.2519 -180 0 0 42.52 233.24 L42.52 213.4 A4.2519 4.2519 -180 0 0 38.27 209.15
						 L4.25 209.15 A4.2519 4.2519 -180 0 0 0 213.4 L0 233.24 A4.2519 4.2519 -180 0 0 4.25 237.49 Z" class="st1"/>
			<text x="9.78" y="220.32" class="st2">CAD <tspan x="9.64" dy="1.2em" class="st3">Tools</tspan></text>		</g>
		<g id="shape28-116" transform="translate(242.993,-105.069)">
			<title>Rounded Rectangle.28</title>
			<desc>CAM Tools</desc>
			<path d="M4.35 237.49 L39.13 237.49 A4.34757 4.34757 -180 0 0 43.48 233.15 L43.48 213.49 A4.34757 4.34757 -180 0 0 39.13
						 209.15 L4.35 209.15 A4.34757 4.34757 -180 0 0 0 213.49 L0 233.15 A4.34757 4.34757 -180 0 0 4.35 237.49 Z"
					class="st1"/>
			<text x="9.38" y="220.32" class="st2">CAM <tspan x="10.12" dy="1.2em" class="st3">Tools</tspan></text>		</g>
		<g id="shape29-120" transform="translate(408.233,-105.069)">
			<title>Rounded Rectangle.46</title>
			<desc>Firmware</desc>
			<path d="M5.67 237.49 L51.02 237.49 A5.6692 5.6692 -180 0 0 56.69 231.82 L56.69 214.82 A5.6692 5.6692 -180 0 0 51.02
						 209.15 L5.67 209.15 A5.6692 5.6692 -180 0 0 0 214.82 L0 231.82 A5.6692 5.6692 -180 0 0 5.67 237.49 Z"
					class="st1"/>
			<text x="6.4" y="226.32" class="st2">Firmware</text>		</g>
		<g id="shape30-123" transform="translate(256.135,-147.588)">
			<title>Dynamic connector.30</title>
			<path d="M0 237.49 C-0 244.58 -45.11 244.58 -90.22 244.58 C-126.89 244.58 -163.57 244.58 -176 248.39 L-176.29 248.6"
					class="st4"/>
		</g>
		<g id="shape31-128" transform="translate(253.346,-147.588)">
			<title>Dynamic connector.31</title>
			<path d="M2.79 237.49 C2.79 242.3 6.75 243.85 9.29 246.56 L9.43 246.89" class="st4"/>
		</g>
		<g id="shape32-133" transform="translate(256.135,-147.588)">
			<title>Dynamic connector.32</title>
			<path d="M0 237.49 C0 244.58 45.11 244.58 90.22 244.58 C126.89 244.58 163.57 244.58 176 248.39 L176.29 248.6"
					class="st4"/>
		</g>
		<g id="shape33-138" transform="translate(923.975,-105.069)">
			<title>Dynamic connector.33</title>
			<path d="M0 237.49 C0 243.08 21.99 244.26 31.33 247.98 L31.59 248.22" class="st4"/>
		</g>
		<g id="shape34-143" transform="translate(641.095,-190.108)">
			<title>Rounded Rectangle.51</title>
			<desc>RepRap Structure</desc>
			<path d="M5.67 237.49 L51.02 237.49 A5.6692 5.6692 -180 0 0 56.69 231.82 L56.69 214.82 A5.6692 5.6692 -180 0 0 51.02
						 209.15 L5.67 209.15 A5.6692 5.6692 -180 0 0 0 214.82 L0 231.82 A5.6692 5.6692 -180 0 0 5.67 237.49 Z"
					class="st1"/>
			<text x="9.44" y="220.32" class="st7">RepRap <tspan x="7.15" dy="1.2em" class="st3">Structure</tspan></text>		</g>
		<g id="shape35-147" transform="translate(669.442,-190.108)">
			<title>Dynamic connector.35</title>
			<path d="M0 237.49 C-0 244.58 -103.33 244.58 -206.65 244.58 C-296.61 244.58 -386.57 244.58 -408.34 249.26 L-408.66 249.41"
					class="st4"/>
		</g>
		<g id="shape36-152" transform="translate(669.442,-190.108)">
			<title>Dynamic connector.53</title>
			<path d="M0 237.49 C-0 242.79 12.33 244.13 18.57 247.42 L18.8 247.7" class="st4"/>
		</g>
		<g id="shape37-157" transform="translate(669.442,-190.108)">
			<title>Dynamic connector.54</title>
			<path d="M0 237.49 C0 244.58 63.63 244.58 127.27 244.58 C180.64 244.58 234.02 244.58 249.84 248.76 L250.14 248.95"
					class="st4"/>
		</g>
		<g id="shape38-162" transform="translate(669.442,-190.108)">
			<title>Dynamic connector.55</title>
			<path d="M0 237.49 C0 244.58 103.33 244.58 206.65 244.58 C296.61 244.58 386.57 244.58 408.34 249.26 L408.66 249.41"
					class="st4"/>
		</g>
		<g id="shape39-167" transform="translate(18.7741,-62.5488)">
			<title>Rounded Rectangle.56</title>
			<desc>Software</desc>
			<path d="M5.12 237.49 L46.04 237.49 A5.11557 5.11557 -180 0 0 51.16 232.38 L51.16 214.26 A5.11557 5.11557 -180 0 0 46.04
						 209.15 L5.12 209.15 A5.11557 5.11557 -180 0 0 0 214.26 L0 232.38 A5.11557 5.11557 -180 0 0 5.12 237.49 Z"
					class="st1"/>
			<text x="4.23" y="226.32" class="st2">Software</text>		</g>
		<g id="shape40-170" transform="translate(84.1038,-62.5488)">
			<title>Rounded Rectangle.57</title>
			<desc>Files</desc>
			<path d="M4.59 237.49 L41.27 237.49 A4.58496 4.58496 -180 0 0 45.85 232.91 L45.85 213.73 A4.58496 4.58496 -180 0 0 41.27
						 209.15 L4.59 209.15 A4.58496 4.58496 -180 0 0 -0 213.73 L0 232.91 A4.58496 4.58496 -180 0 0 4.59 237.49
						 Z" class="st1"/>
			<text x="13.31" y="226.32" class="st2">Files</text>		</g>
		<g id="shape41-173" transform="translate(144.127,-20.0292)">
			<title>Rounded Rectangle.58</title>
			<desc>Slicer</desc>
			<path d="M4.35 237.49 L39.13 237.49 A4.34757 4.34757 -180 0 0 43.48 233.15 L43.48 213.49 A4.34757 4.34757 -180 0 0 39.13
						 209.15 L4.35 209.15 A4.34757 4.34757 -180 0 0 0 213.49 L0 233.15 A4.34757 4.34757 -180 0 0 4.35 237.49 Z"
					class="st1"/>
			<text x="9.26" y="226.32" class="st2">Slicer</text>		</g>
		<g id="shape42-176" transform="translate(267.107,-20.0292)">
			<title>Rounded Rectangle.59</title>
			<desc>G-code interpreter</desc>
			<path d="M6.76 237.49 L60.86 237.49 A6.76235 6.76235 -180 0 0 67.62 230.73 L67.62 215.91 A6.76235 6.76235 -180 0 0 60.86
						 209.15 L6.76 209.15 A6.76235 6.76235 -180 0 0 0 215.91 L0 230.73 A6.76235 6.76235 -180 0 0 6.76 237.49 Z"
					class="st1"/>
			<text x="14.61" y="220.32" class="st2">G-code <tspan x="8.7" dy="1.2em" class="st3">interpreter</tspan></text>		</g>
		<g id="shape43-180" transform="translate(201.777,-20.0292)">
			<title>Rounded Rectangle.60</title>
			<desc>G-code sender</desc>
			<path d="M5.12 237.49 L46.04 237.49 A5.11557 5.11557 -180 0 0 51.16 232.38 L51.16 214.26 A5.11557 5.11557 -180 0 0 46.04
						 209.15 L5.12 209.15 A5.11557 5.11557 -180 0 0 0 214.26 L0 232.38 A5.11557 5.11557 -180 0 0 5.12 237.49 Z"
					class="st1"/>
			<text x="6.37" y="220.32" class="st2">G-code <tspan x="9.16" dy="1.2em" class="st3">sender</tspan></text>		</g>
		<g id="shape44-184" transform="translate(207.814,-62.5488)">
			<title>Rounded Rectangle.61</title>
			<desc>Software</desc>
			<path d="M5.12 237.49 L46.04 237.49 A5.11557 5.11557 -180 0 0 51.16 232.38 L51.16 214.26 A5.11557 5.11557 -180 0 0 46.04
						 209.15 L5.12 209.15 A5.11557 5.11557 -180 0 0 0 214.26 L0 232.38 A5.11557 5.11557 -180 0 0 5.12 237.49 Z"
					class="st1"/>
			<text x="4.23" y="226.32" class="st2">Software</text>		</g>
		<g id="shape45-187" transform="translate(273.144,-62.5488)">
			<title>Rounded Rectangle.62</title>
			<desc>Files</desc>
			<path d="M4.59 237.49 L41.27 237.49 A4.58496 4.58496 -180 0 0 45.85 232.91 L45.85 213.73 A4.58496 4.58496 -180 0 0 41.27
						 209.15 L4.59 209.15 A4.58496 4.58496 -180 0 0 -0 213.73 L0 232.91 A4.58496 4.58496 -180 0 0 4.59 237.49
						 Z" class="st1"/>
			<text x="13.31" y="226.32" class="st2">Files</text>		</g>
		<g id="shape46-190" transform="translate(75.6907,-105.069)">
			<title>Dynamic connector.63</title>
			<path d="M0 237.49 C0 243 -18.94 244.23 -27.37 247.83 L-27.63 248.08" class="st4"/>
		</g>
		<g id="shape47-195" transform="translate(75.6907,-105.069)">
			<title>Dynamic connector.64</title>
			<path d="M0 237.49 C0 243 18.94 244.23 27.37 247.83 L27.63 248.08" class="st4"/>
		</g>
		<g id="shape48-200" transform="translate(264.731,-105.069)">
			<title>Dynamic connector.65</title>
			<path d="M0 237.49 C0 243 -18.94 244.23 -27.37 247.83 L-27.63 248.08" class="st4"/>
		</g>
		<g id="shape49-205" transform="translate(264.731,-105.069)">
			<title>Dynamic connector.66</title>
			<path d="M0 237.49 C0 243 18.94 244.23 27.37 247.83 L27.63 248.08" class="st4"/>
		</g>
		<g id="shape50-210" transform="translate(233.392,-62.5488)">
			<title>Dynamic connector.67</title>
			<path d="M0 237.49 C-0 244.58 -16.88 244.58 -33.76 244.58 C-46.06 244.58 -58.35 244.58 -64.13 247.32 L-64.35 247.6"
					class="st4"/>
		</g>
		<g id="shape51-215" transform="translate(233.392,-62.5488)">
			<title>Dynamic connector.68</title>
			<path d="M0 237.49 C0 244.58 16.88 244.58 33.76 244.58 C46.06 244.58 58.35 244.58 64.13 247.32 L64.35 247.6"
					class="st4"/>
		</g>
		<g id="shape52-220" transform="translate(237.46,-62.5488)">
			<title>Dynamic connector.69</title>
			<path d="M-4.07 237.49 C-4.07 242.2 -6.73 243.78 -8.51 246.38 L-8.62 246.72" class="st4"/>
		</g>
		<g id="shape53-225" transform="translate(348.905,-62.5488)">
			<title>Rounded Rectangle.70</title>
			<desc>G-code interpreter</desc>
			<path d="M4.86 237.49 L43.75 237.49 A4.86134 4.86134 -180 0 0 48.61 232.63 L48.61 214.01 A4.86134 4.86134 -180 0 0 43.75
						 209.15 L4.86 209.15 A4.86134 4.86134 -180 0 0 0 214.01 L0 232.63 A4.86134 4.86134 -180 0 0 4.86 237.49 Z"
					class="st1"/>
			<text x="5.1" y="220" class="st2">G-code
			<tspan x="5.1" dy="1.2em" class="st3">interpreter</tspan></text>
			</g>
		<g id="shape54-228" transform="translate(411.692,-62.5488)">
			<title>Rounded Rectangle.71</title>
			<desc>Software</desc>
			<path d="M5.12 237.49 L46.04 237.49 A5.11557 5.11557 -180 0 0 51.16 232.38 L51.16 214.26 A5.11557 5.11557 -180 0 0 46.04
						 209.15 L5.12 209.15 A5.11557 5.11557 -180 0 0 0 214.26 L0 232.38 A5.11557 5.11557 -180 0 0 5.12 237.49 Z"
					class="st1"/>
			<text x="4.23" y="226.32" class="st2">Software</text>		</g>
		<g id="shape55-231" transform="translate(477.022,-62.5488)">
			<title>Rounded Rectangle.73</title>
			<desc>Files</desc>
			<path d="M4.59 237.49 L41.27 237.49 A4.58496 4.58496 -180 0 0 45.85 232.91 L45.85 213.73 A4.58496 4.58496 -180 0 0 41.27
						 209.15 L4.59 209.15 A4.58496 4.58496 -180 0 0 -0 213.73 L0 232.91 A4.58496 4.58496 -180 0 0 4.59 237.49
						 Z" class="st1"/>
			<text x="13.31" y="226.32" class="st2">Files</text>		</g>
		<g id="shape56-234" transform="translate(436.579,-105.069)">
			<title>Dynamic connector.76</title>
			<path d="M0 237.49 C-0 244.58 -15.84 244.58 -31.68 244.58 C-43.13 244.58 -54.58 244.58 -60.05 247.25 L-60.27 247.54"
					class="st4"/>
		</g>
		<g id="shape57-239" transform="translate(429.838,-105.069)">
			<title>Dynamic connector.77</title>
			<path d="M6.74 237.49 C6.74 241.04 6.74 242.81 6.86 243.69 C6.97 244.58 7.2 244.58 7.32 245.47 C7.34 245.65 7.36 245.88
						 7.38 246.15 L7.38 246.51" class="st4"/>
		</g>
		<g id="shape58-244" transform="translate(436.579,-105.069)">
			<title>Dynamic connector.78</title>
			<path d="M0 237.49 C0 244.58 15.84 244.58 31.68 244.58 C43.13 244.58 54.58 244.58 60.05 247.25 L60.27 247.54"
					class="st4"/>
		</g>
	</g>
</svg>
